<svg xmlns="http://www.w3.org/2000/svg" height="32px" viewBox="0 -960 960 960" width="32px" fill="#F96D00"><path d="M200-120v-507.85q0-24.3 17.28-41.38 17.27-17.08 41.18-17.08h294.62q23.91 0 41.18 17.08 17.28 17.08 17.28 41.38V-120L406.15-226 200-120Zm33.85-56.79 172.3-87.75 171.54 87.75v-451.06q0-10.77-6.92-17.69-6.92-6.92-17.69-6.92H258.46q-10.77 0-17.69 6.92-6.92 6.92-6.92 17.69v451.06Zm492.3-85.36v-519.54q0-10.77-6.92-17.69-6.92-6.93-17.69-6.93H312.67v-33.84h388.87q23.91 0 41.18 17.07Q760-806 760-781.69v519.54h-33.85Zm-492.3-390.31H577.69 233.85Z"/></svg>
